<svg width="512" height="512" viewBox="0 0 512 512" fill="none" xmlns="http://www.w3.org/2000/svg">
<path fill-rule="evenodd" clip-rule="evenodd" d="M265.505 78.2637C261.298 70.8818 250.702 70.8818 246.495 78.2637L50.1721 422.804C45.9758 430.168 51.2977 439.273 59.6768 439.273H452.323C460.702 439.273 466.024 430.168 461.828 422.804L265.505 78.2637ZM211.192 58.072C231 23.3094 281 23.3093 300.808 58.072L497.131 402.612C516.765 437.069 491.975 480 452.323 480H59.6768C20.0248 480 -4.76523 437.069 14.8686 402.612L211.192 58.072Z" fill="#ffffff" id="id_101"></path>
<path d="M280.391 378.182C280.391 391.678 269.471 402.618 256 402.618C242.529 402.618 231.609 391.678 231.609 378.182C231.609 364.686 242.529 353.745 256 353.745C269.471 353.745 280.391 364.686 280.391 378.182Z" fill="#ffffff" id="id_102"></path>
<path fill-rule="evenodd" clip-rule="evenodd" d="M256 174.545C269.471 174.545 280.391 185.486 280.391 198.982V304.873C280.391 318.369 269.471 329.309 256 329.309C242.529 329.309 231.609 318.369 231.609 304.873V198.982C231.609 185.486 242.529 174.545 256 174.545Z" fill="#ffffff" id="id_103"></path>
</svg>